<svg xmlns="http://www.w3.org/2000/svg" xmlns:xlink="http://www.w3.org/1999/xlink" width="2000" zoomAndPan="magnify" viewBox="0 0 1500 1499.999933" height="2000" preserveAspectRatio="xMidYMid meet" version="1.0"><defs><g/><clipPath id="a777f0454e"><rect x="0" width="1500" y="0" height="985"/></clipPath></defs><g transform="matrix(1, 0, 0, 1, 0, 232)"><g clip-path="url(#a777f0454e)"><g fill="#ffffff" fill-opacity="1"><g transform="translate(0.00003335, 777.104306)"><g><path d="M 56.359375 -234.546875 L 56.359375 -348.921875 L 457.5 -524.625 L 457.5 -407.765625 L 177.359375 -292.5625 L 457.5 -177.359375 L 457.5 -58.84375 Z M 56.359375 -234.546875 "/></g></g></g><g fill="#ffffff" fill-opacity="1"><g transform="translate(530.432074, 777.104306)"><g><path d="M 343.953125 -661.375 L 450.859375 -661.375 L 83.703125 106.09375 L -23.203125 106.09375 Z M 343.953125 -661.375 "/></g></g></g><g fill="#ffffff" fill-opacity="1"><g transform="translate(969.695785, 777.104306)"><g><path d="M 72.9375 -175.703125 L 353.0625 -290.90625 L 72.9375 -406.109375 L 72.9375 -524.625 L 474.078125 -348.921875 L 474.078125 -234.546875 L 72.9375 -58.84375 Z M 72.9375 -175.703125 "/></g></g></g></g></g></svg>