<svg xmlns="http://www.w3.org/2000/svg" xmlns:xlink="http://www.w3.org/1999/xlink" width="256" zoomAndPan="magnify" viewBox="0 0 192 191.999996" height="256" preserveAspectRatio="xMidYMid meet" version="1.0"><defs><g/><clipPath id="4e4aa30530"><rect x="0" width="192" y="0" height="127"/></clipPath></defs><g transform="matrix(1, 0, 0, 1, 0, 29)"><g clip-path="url(#4e4aa30530)"><g fill="#ffffff" fill-opacity="1"><g transform="translate(0.000002, 100.165364)"><g><path d="M 7.21875 -30.03125 L 7.21875 -44.671875 L 58.5625 -67.15625 L 58.5625 -52.203125 L 22.703125 -37.453125 L 58.5625 -22.703125 L 58.5625 -7.53125 Z M 7.21875 -30.03125 "/></g></g></g><g fill="#ffffff" fill-opacity="1"><g transform="translate(67.895307, 100.165364)"><g><path d="M 44.03125 -84.65625 L 57.71875 -84.65625 L 10.71875 13.578125 L -2.96875 13.578125 Z M 44.03125 -84.65625 "/></g></g></g><g fill="#ffffff" fill-opacity="1"><g transform="translate(124.121065, 100.165364)"><g><path d="M 9.34375 -22.484375 L 45.203125 -37.234375 L 9.34375 -51.984375 L 9.34375 -67.15625 L 60.6875 -44.671875 L 60.6875 -30.03125 L 9.34375 -7.53125 Z M 9.34375 -22.484375 "/></g></g></g></g></g></svg>